{
  "accessors": [
    {
      "bufferView": 2,
      "componentType": 5126,
      "count": 1093,
      "max": [
        0.23595982789993286,
        0.23189163208007813,
        0.36199823021888733
      ],
      "min": [
        -0.23261289298534393,
        -0.03571724519133568,
        -0.31039729714393616
      ],
      "type": "VEC3"
    },
    {
      "bufferView": 2,
      "byteOffset": 13116,
      "componentType": 5126,
      "count": 1093,
      "max": [
        0.9998856782913208,
        0.9991179704666138,
        0.997970461845398
      ],
      "min": [
        -0.9993153810501099,
        -0.99952232837677,
        -0.9996168613433838
      ],
      "type": "VEC3"
    },
    {
      "bufferView": 0,
      "componentType": 5125,
      "count": 6318,
      "type": "SCALAR"
    },
    {
      "bufferView": 2,
      "byteOffset": 26232,
      "componentType": 5126,
      "count": 235,
      "max": [
        0.21017853915691376,
        -0.034496624022722244,
        0.33168256282806396
      ],
      "min": [
        -0.2061169445514679,
        -0.03571724519133568,
        -0.2808183431625366
      ],
      "type": "VEC3"
    },
    {
      "bufferView": 2,
      "byteOffset": 29052,
      "componentType": 5126,
      "count": 235,
      "max": [
        0.04724292457103729,
        -0.9988765120506287,
        0.03427300229668617
      ],
      "min": [
        -0.04187239706516266,
        -1.0,
        -0.03119076043367386
      ],
      "type": "VEC3"
    },
    {
      "bufferView": 0,
      "byteOffset": 25272,
      "componentType": 5125,
      "count": 1170,
      "type": "SCALAR"
    },
    {
      "bufferView": 2,
      "byteOffset": 31872,
      "componentType": 5126,
      "count": 2392,
      "max": [
        0.9872310161590576,
        0.9872310161590576,
        0.9975767135620117
      ],
      "min": [
        -0.9872305393218994,
        -0.9872307181358337,
        -0.9975767135620117
      ],
      "type": "VEC3"
    },
    {
      "bufferView": 2,
      "byteOffset": 60576,
      "componentType": 5126,
      "count": 2392,
      "max": [
        1.0,
        1.0,
        1.0
      ],
      "min": [
        -1.0,
        -1.0,
        -1.0
      ],
      "type": "VEC3"
    },
    {
      "bufferView": 1,
      "componentType": 5126,
      "count": 2392,
      "max": [
        1.0000001192092896,
        1.0000001192092896
      ],
      "min": [
        0.0,
        0.0
      ],
      "type": "VEC2"
    },
    {
      "bufferView": 0,
      "byteOffset": 29952,
      "componentType": 5125,
      "count": 11904,
      "type": "SCALAR"
    },
    {
      "bufferView": 2,
      "byteOffset": 89280,
      "componentType": 5126,
      "count": 1934,
      "max": [
        3.4865057468414307,
        1.0262008905410767,
        1.0000009536743164
      ],
      "min": [
        -3.486504554748535,
        -1.0262010097503662,
        -1.0000007152557373
      ],
      "type": "VEC3"
    },
    {
      "bufferView": 2,
      "byteOffset": 112488,
      "componentType": 5126,
      "count": 1934,
      "max": [
        1.0,
        1.0,
        1.0
      ],
      "min": [
        -1.0,
        -1.0,
        -1.0
      ],
      "type": "VEC3"
    },
    {
      "bufferView": 1,
      "byteOffset": 19136,
      "componentType": 5126,
      "count": 1934,
      "max": [
        1.0000001192092896,
        1.0000001192092896
      ],
      "min": [
        0.0,
        0.01000000536441803
      ],
      "type": "VEC2"
    },
    {
      "bufferView": 0,
      "byteOffset": 77568,
      "componentType": 5125,
      "count": 9984,
      "type": "SCALAR"
    },
    {
      "bufferView": 2,
      "byteOffset": 135696,
      "componentType": 5126,
      "count": 306,
      "max": [
        0.3029829263687134,
        0.02830694615840912,
        0.024426981806755066
      ],
      "min": [
        -0.29526376724243164,
        -0.028306324034929276,
        -0.3257615566253662
      ],
      "type": "VEC3"
    },
    {
      "bufferView": 2,
      "byteOffset": 139368,
      "componentType": 5126,
      "count": 306,
      "max": [
        0.9991307258605957,
        0.9999855756759644,
        0.9993612766265869
      ],
      "min": [
        -0.9997910261154175,
        -0.9999855756759644,
        -0.9993764162063599
      ],
      "type": "VEC3"
    },
    {
      "bufferView": 0,
      "byteOffset": 117504,
      "componentType": 5125,
      "count": 1824,
      "type": "SCALAR"
    },
    {
      "bufferView": 2,
      "byteOffset": 143040,
      "componentType": 5126,
      "count": 6404,
      "max": [
        2.085601329803467,
        0.5292384028434753,
        1.2480895519256592
      ],
      "min": [
        -2.2741243839263916,
        -0.42003124952316284,
        -5.974920272827148
      ],
      "type": "VEC3"
    },
    {
      "bufferView": 2,
      "byteOffset": 219888,
      "componentType": 5126,
      "count": 6404,
      "max": [
        0.9999411106109619,
        1.0,
        0.9999998807907104
      ],
      "min": [
        -0.9999967813491821,
        -1.0,
        -0.9999998807907104
      ],
      "type": "VEC3"
    },
    {
      "bufferView": 0,
      "byteOffset": 124800,
      "componentType": 5125,
      "count": 38400,
      "type": "SCALAR"
    },
    {
      "bufferView": 2,
      "byteOffset": 296736,
      "componentType": 5126,
      "count": 5344,
      "max": [
        0.6943674087524414,
        4.638280868530273,
        29.359277725219727
      ],
      "min": [
        -34.422019958496094,
        -0.4266228675842285,
        -0.6392673254013062
      ],
      "type": "VEC3"
    },
    {
      "bufferView": 2,
      "byteOffset": 360864,
      "componentType": 5126,
      "count": 5344,
      "max": [
        0.94057297706604,
        0.9998607635498047,
        0.993017315864563
      ],
      "min": [
        -0.9447344541549683,
        -0.9999717473983765,
        -0.9639902710914612
      ],
      "type": "VEC3"
    },
    {
      "bufferView": 1,
      "byteOffset": 34608,
      "componentType": 5126,
      "count": 5344,
      "max": [
        0.9104220867156982,
        1.0
      ],
      "min": [
        0.0,
        0.0
      ],
      "type": "VEC2"
    },
    {
      "bufferView": 0,
      "byteOffset": 278400,
      "componentType": 5125,
      "count": 8016,
      "type": "SCALAR"
    },
    {
      "bufferView": 2,
      "byteOffset": 424992,
      "componentType": 5126,
      "count": 1133,
      "max": [
        0.5003148913383484,
        1.0982223749160767,
        2.29628324508667
      ],
      "min": [
        -3.1955227851867676,
        -0.8977603912353516,
        -0.9856986999511719
      ],
      "type": "VEC3"
    },
    {
      "bufferView": 2,
      "byteOffset": 438588,
      "componentType": 5126,
      "count": 1133,
      "max": [
        0.9854038953781128,
        0.9951942563056946,
        0.9440099000930786
      ],
      "min": [
        -0.9849813580513,
        -0.9986171126365662,
        -0.99485182762146
      ],
      "type": "VEC3"
    },
    {
      "bufferView": 1,
      "byteOffset": 77360,
      "componentType": 5126,
      "count": 1133,
      "max": [
        1.0000001192092896,
        1.0000001192092896
      ],
      "min": [
        0.0,
        0.010000006295740604
      ],
      "type": "VEC2"
    },
    {
      "bufferView": 0,
      "byteOffset": 310464,
      "componentType": 5125,
      "count": 4992,
      "type": "SCALAR"
    },
    {
      "bufferView": 2,
      "byteOffset": 452184,
      "componentType": 5126,
      "count": 192,
      "max": [
        -0.8824740052223206,
        1.0982223749160767,
        2.3456027507781982
      ],
      "min": [
        -3.1955227851867676,
        -0.8810321092605591,
        1.4784539937973022
      ],
      "type": "VEC3"
    },
    {
      "bufferView": 2,
      "byteOffset": 454488,
      "componentType": 5126,
      "count": 192,
      "max": [
        0.6448431611061096,
        0.9112260341644287,
        0.9944658875465393
      ],
      "min": [
        -0.9849813580513,
        -0.9407021999359131,
        -0.18262867629528046
      ],
      "type": "VEC3"
    },
    {
      "bufferView": 1,
      "byteOffset": 86424,
      "componentType": 5126,
      "count": 192,
      "max": [
        0.4899999797344208,
        0.49000000953674316
      ],
      "min": [
        0.01000000536441803,
        0.01000000536441803
      ],
      "type": "VEC2"
    },
    {
      "bufferView": 0,
      "byteOffset": 330432,
      "componentType": 5125,
      "count": 768,
      "type": "SCALAR"
    },
    {
      "bufferView": 2,
      "byteOffset": 456792,
      "componentType": 5126,
      "count": 2370,
      "max": [
        1.742598295211792,
        -0.024562664330005646,
        0.6062062382698059
      ],
      "min": [
        -2.164310932159424,
        -0.5649468898773193,
        -2.275552272796631
      ],
      "type": "VEC3"
    },
    {
      "bufferView": 2,
      "byteOffset": 485232,
      "componentType": 5126,
      "count": 2370,
      "max": [
        0.9924343824386597,
        1.0,
        0.9991894960403442
      ],
      "min": [
        -0.9908891320228577,
        -1.0,
        -0.9993903636932373
      ],
      "type": "VEC3"
    },
    {
      "bufferView": 0,
      "byteOffset": 333504,
      "componentType": 5125,
      "count": 14208,
      "type": "SCALAR"
    },
    {
      "bufferView": 2,
      "byteOffset": 513672,
      "componentType": 5126,
      "count": 2370,
      "max": [
        2.178832530975342,
        0.2701904773712158,
        1.6194640398025513
      ],
      "min": [
        -1.7280765771865845,
        -0.27019381523132324,
        -1.2622944116592407
      ],
      "type": "VEC3"
    },
    {
      "bufferView": 2,
      "byteOffset": 542112,
      "componentType": 5126,
      "count": 2370,
      "max": [
        0.9908891320228577,
        1.0,
        0.9991908073425293
      ],
      "min": [
        -0.9924343824386597,
        -1.0,
        -0.9993892908096313
      ],
      "type": "VEC3"
    },
    {
      "bufferView": 0,
      "byteOffset": 390336,
      "componentType": 5125,
      "count": 14208,
      "type": "SCALAR"
    },
    {
      "bufferView": 2,
      "byteOffset": 570552,
      "componentType": 5126,
      "count": 5344,
      "max": [
        0.7000693082809448,
        4.984856128692627,
        32.00654220581055
      ],
      "min": [
        -30.257593154907227,
        -0.37386998534202576,
        -0.6388527154922485
      ],
      "type": "VEC3"
    },
    {
      "bufferView": 2,
      "byteOffset": 634680,
      "componentType": 5126,
      "count": 5344,
      "max": [
        0.9893383979797363,
        0.9999955892562866,
        0.9930886030197144
      ],
      "min": [
        -0.9778826832771301,
        -0.9996762871742249,
        -0.9736832976341248
      ],
      "type": "VEC3"
    },
    {
      "bufferView": 1,
      "byteOffset": 87960,
      "componentType": 5126,
      "count": 5344,
      "max": [
        0.9104220867156982,
        1.0
      ],
      "min": [
        0.0,
        0.0
      ],
      "type": "VEC2"
    },
    {
      "bufferView": 0,
      "byteOffset": 447168,
      "componentType": 5125,
      "count": 8016,
      "type": "SCALAR"
    }
  ],
  "asset": {
    "extras": {
      "author": "dukepipe (https://sketchfab.com/dukepipe)",
      "license": "CC-BY-4.0 (http://creativecommons.org/licenses/by/4.0/)",
      "source": "https://sketchfab.com/3d-models/abby-the-cute-avocado-4055e3c2fef0403da635c86d0f837af2",
      "title": "Abby The Cute Avocado"
    },
    "generator": "Sketchfab-14.45.0",
    "version": "2.0"
  },
  "bufferViews": [
    {
      "buffer": 0,
      "byteLength": 479232,
      "name": "floatBufferViews",
      "target": 34963
    },
    {
      "buffer": 0,
      "byteLength": 130712,
      "byteOffset": 479232,
      "byteStride": 8,
      "name": "floatBufferViews",
      "target": 34962
    },
    {
      "buffer": 0,
      "byteLength": 698808,
      "byteOffset": 609944,
      "byteStride": 12,
      "name": "floatBufferViews",
      "target": 34962
    }
  ],
  "buffers": [
    {
      "byteLength": 1308752,
      "uri": "scene.bin"
    }
  ],
  "images": [
    {
      "uri": "textures/Hoja_baseColor.png"
    }
  ],
  "materials": [
    {
      "doubleSided": true,
      "name": "Cascara",
      "pbrMetallicRoughness": {
        "baseColorFactor": [
          0.0544803,
          0.0908417,
          0.0273209,
          1.0
        ],
        "metallicFactor": 0.0,
        "roughnessFactor": 0.5443795638234326
      }
    },
    {
      "doubleSided": true,
      "name": "Fruta",
      "pbrMetallicRoughness": {
        "baseColorFactor": [
          0.434154,
          0.508881,
          0.0512695,
          1.0
        ],
        "metallicFactor": 0.0,
        "roughnessFactor": 0.8971510494921787
      }
    },
    {
      "doubleSided": true,
      "name": "Pepa",
      "pbrMetallicRoughness": {
        "baseColorFactor": [
          0.25415199999999993,
          0.07421359999999998,
          0.0241576,
          1.0
        ],
        "metallicFactor": 0.0,
        "roughnessFactor": 0.5017127671246236
      }
    },
    {
      "doubleSided": true,
      "name": "Material.004",
      "pbrMetallicRoughness": {
        "baseColorFactor": [
          0.0,
          0.0,
          0.0,
          1.0
        ],
        "metallicFactor": 0.0
      }
    },
    {
      "doubleSided": true,
      "name": "Material.005",
      "pbrMetallicRoughness": {
        "baseColorFactor": [
          0.0,
          0.0,
          0.0,
          1.0
        ],
        "metallicFactor": 0.0
      }
    },
    {
      "doubleSided": true,
      "name": "Hoja",
      "pbrMetallicRoughness": {
        "baseColorTexture": {
          "index": 0
        },
        "metallicFactor": 0.0
      }
    },
    {
      "doubleSided": true,
      "name": "Material.001",
      "pbrMetallicRoughness": {
        "baseColorFactor": [
          0.258183,
          0.08974869999999999,
          0.03561460000000001,
          1.0
        ],
        "metallicFactor": 0.0,
        "roughnessFactor": 0.9727983783623565
      }
    },
    {
      "doubleSided": true,
      "name": "Material.002",
      "pbrMetallicRoughness": {
        "baseColorFactor": [
          0.13286800000000001,
          0.0451862,
          0.0251869,
          1.0
        ],
        "metallicFactor": 0.0,
        "roughnessFactor": 0.6262876229718033
      }
    }
  ],
  "meshes": [
    {
      "name": "NurbsCurve_Cascara_0",
      "primitives": [
        {
          "attributes": {
            "NORMAL": 1,
            "POSITION": 0
          },
          "indices": 2,
          "material": 0,
          "mode": 4
        }
      ]
    },
    {
      "name": "NurbsCurve_Fruta_0",
      "primitives": [
        {
          "attributes": {
            "NORMAL": 4,
            "POSITION": 3
          },
          "indices": 5,
          "material": 1,
          "mode": 4
        }
      ]
    },
    {
      "name": "Sphere_Pepa_0",
      "primitives": [
        {
          "attributes": {
            "NORMAL": 7,
            "POSITION": 6,
            "TEXCOORD_0": 8
          },
          "indices": 9,
          "material": 2,
          "mode": 4
        }
      ]
    },
    {
      "name": "Cylinder_Material.004_0",
      "primitives": [
        {
          "attributes": {
            "NORMAL": 11,
            "POSITION": 10,
            "TEXCOORD_0": 12
          },
          "indices": 13,
          "material": 3,
          "mode": 4
        }
      ]
    },
    {
      "name": "NurbsPath_Material.005_0",
      "primitives": [
        {
          "attributes": {
            "NORMAL": 15,
            "POSITION": 14
          },
          "indices": 16,
          "material": 4,
          "mode": 4
        }
      ]
    },
    {
      "name": "NurbsPath.001_Cascara_0",
      "primitives": [
        {
          "attributes": {
            "NORMAL": 18,
            "POSITION": 17
          },
          "indices": 19,
          "material": 0,
          "mode": 4
        }
      ]
    },
    {
      "name": "NurbsPath.002_Hoja_0",
      "primitives": [
        {
          "attributes": {
            "NORMAL": 21,
            "POSITION": 20,
            "TEXCOORD_0": 22
          },
          "indices": 23,
          "material": 5,
          "mode": 4
        }
      ]
    },
    {
      "name": "Cylinder.001_Material.001_0",
      "primitives": [
        {
          "attributes": {
            "NORMAL": 25,
            "POSITION": 24,
            "TEXCOORD_0": 26
          },
          "indices": 27,
          "material": 6,
          "mode": 4
        }
      ]
    },
    {
      "name": "Cylinder.001_Material.002_0",
      "primitives": [
        {
          "attributes": {
            "NORMAL": 29,
            "POSITION": 28,
            "TEXCOORD_0": 30
          },
          "indices": 31,
          "material": 7,
          "mode": 4
        }
      ]
    },
    {
      "name": "NurbsPath.004_Cascara_0",
      "primitives": [
        {
          "attributes": {
            "NORMAL": 33,
            "POSITION": 32
          },
          "indices": 34,
          "material": 0,
          "mode": 4
        }
      ]
    },
    {
      "name": "NurbsPath.005_Cascara_0",
      "primitives": [
        {
          "attributes": {
            "NORMAL": 36,
            "POSITION": 35
          },
          "indices": 37,
          "material": 0,
          "mode": 4
        }
      ]
    },
    {
      "name": "NurbsPath.007_Hoja_0",
      "primitives": [
        {
          "attributes": {
            "NORMAL": 39,
            "POSITION": 38,
            "TEXCOORD_0": 40
          },
          "indices": 41,
          "material": 5,
          "mode": 4
        }
      ]
    }
  ],
  "nodes": [
    {
      "children": [
        1
      ],
      "matrix": [
        1.0,
        0.0,
        0.0,
        0.0,
        0.0,
        2.220446049250313e-16,
        -1.0,
        0.0,
        0.0,
        1.0,
        2.220446049250313e-16,
        0.0,
        0.0,
        0.0,
        0.0,
        1.0
      ],
      "name": "Sketchfab_model"
    },
    {
      "children": [
        2
      ],
      "matrix": [
        0.009999999776482582,
        0.0,
        0.0,
        0.0,
        0.0,
        0.0,
        0.009999999776482582,
        0.0,
        0.0,
        -0.009999999776482582,
        0.0,
        0.0,
        0.0,
        0.0,
        0.0,
        1.0
      ],
      "name": "0bee8bad18fc4bd290efc2d62e828a8b.fbx"
    },
    {
      "children": [
        3,
        6,
        8,
        10,
        12,
        14,
        16,
        19,
        21,
        23
      ],
      "name": "RootNode"
    },
    {
      "children": [
        4,
        5
      ],
      "matrix": [
        105.18086242675781,
        0.0,
        0.0,
        0.0,
        0.0,
        -1.7136137565586137e-05,
        -105.18086242675642,
        0.0,
        0.0,
        105.18086242675642,
        -1.7136137565586137e-05,
        0.0,
        1.7883983850479126,
        -3.3725626468658447,
        -4.805742150892911e-07,
        1.0
      ],
      "name": "NurbsCurve"
    },
    {
      "mesh": 0,
      "name": "NurbsCurve_Cascara_0"
    },
    {
      "mesh": 1,
      "name": "NurbsCurve_Fruta_0"
    },
    {
      "children": [
        7
      ],
      "matrix": [
        13.9573392868042,
        0.0,
        0.0,
        0.0,
        0.0,
        -2.2739391991084396e-06,
        -13.957339286804014,
        0.0,
        0.0,
        13.957339286804014,
        -2.2739391991084396e-06,
        0.0,
        1.7883983850479126,
        -11.665182113647461,
        -4.805742150892911e-07,
        1.0
      ],
      "name": "Sphere"
    },
    {
      "mesh": 2,
      "name": "Sphere_Pepa_0"
    },
    {
      "children": [
        9
      ],
      "matrix": [
        3.1983654499053955,
        0.0,
        0.0,
        0.0,
        0.0,
        3.1983654499053924,
        1.3980499406370196e-07,
        0.0,
        0.0,
        -1.506616954292129e-08,
        0.34467378258705106,
        0.0,
        1.7883952856063843,
        10.372708320617676,
        3.8852014541625977,
        1.0
      ],
      "name": "Cylinder"
    },
    {
      "mesh": 3,
      "name": "Cylinder_Material.004_0"
    },
    {
      "children": [
        11
      ],
      "matrix": [
        11.384389877319336,
        0.0,
        0.0,
        0.0,
        0.0,
        -2.4280927865056393e-06,
        -14.903527259826463,
        0.0,
        0.0,
        10.166452407836779,
        -1.6563253332895104e-06,
        0.0,
        1.9520878791809082,
        7.145185947418213,
        4.042172908782959,
        1.0
      ],
      "name": "NurbsPath"
    },
    {
      "mesh": 4,
      "name": "NurbsPath_Material.005_0"
    },
    {
      "children": [
        13
      ],
      "matrix": [
        -0.07906122484360158,
        2.7287762551112147,
        3.2068493148126615e-07,
        0.0,
        4.352867671221971e-07,
        3.3343115509634285e-07,
        -2.729921579360907,
        0.0,
        -2.728776255111199,
        -0.07906122484354854,
        -4.4476064076492106e-07,
        0.0,
        -4.798599720001221,
        -38.2339973449707,
        -5.1370752771617845e-06,
        1.0
      ],
      "name": "NurbsPath.001"
    },
    {
      "mesh": 5,
      "name": "NurbsPath.001_Cascara_0"
    },
    {
      "children": [
        15
      ],
      "matrix": [
        -0.9091249704360962,
        -0.0,
        -0.0,
        -0.0,
        -0.0,
        1.4811525783552744e-07,
        0.9091249704360842,
        -0.0,
        -0.0,
        -0.9091249704360842,
        1.4811525783552744e-07,
        -0.0,
        2.3820202350616455,
        33.1468505859375,
        3.602604627609253,
        1.0
      ],
      "name": "NurbsPath.002"
    },
    {
      "mesh": 6,
      "name": "NurbsPath.002_Hoja_0"
    },
    {
      "children": [
        17,
        18
      ],
      "matrix": [
        3.7406067848205566,
        0.0,
        0.0,
        0.0,
        0.0,
        -6.094221987206592e-07,
        -3.7406067848205073,
        0.0,
        0.0,
        3.7406067848205073,
        -6.094221987206592e-07,
        0.0,
        1.6989797353744507,
        37.440032958984375,
        0.6827927827835083,
        1.0
      ],
      "name": "Cylinder.001"
    },
    {
      "mesh": 7,
      "name": "Cylinder.001_Material.001_0"
    },
    {
      "mesh": 8,
      "name": "Cylinder.001_Material.002_0"
    },
    {
      "children": [
        20
      ],
      "matrix": [
        4.225700378417969,
        0.0,
        0.0,
        0.0,
        0.0,
        -6.884539765581746e-07,
        -4.225700378417913,
        0.0,
        0.0,
        4.225700378417913,
        -6.884539765581746e-07,
        0.0,
        27.04392433166504,
        3.9946227073669434,
        -2.7829787731170654,
        1.0
      ],
      "name": "NurbsPath.004"
    },
    {
      "mesh": 9,
      "name": "NurbsPath.004_Cascara_0"
    },
    {
      "children": [
        22
      ],
      "matrix": [
        2.4562720163470395,
        3.438498432437046,
        4.382028612837789e-07,
        0.0,
        -0.550784960711936,
        0.39344960737966117,
        4.171135695674071,
        0.0,
        3.3940988978609976,
        -2.4245555447970277,
        0.6768801739558606,
        0.0,
        -23.52849006652832,
        -0.2871006727218628,
        -1.537440299987793,
        1.0
      ],
      "name": "NurbsPath.005"
    },
    {
      "mesh": 10,
      "name": "NurbsPath.005_Cascara_0"
    },
    {
      "children": [
        24
      ],
      "matrix": [
        0.48664442996108714,
        0.740190350957367,
        -0.20445942142119822,
        -0.0,
        -0.020272728713907257,
        0.2543578229960222,
        0.8725819261510698,
        -0.0,
        -0.7676421217435134,
        0.4625241027419369,
        -0.15266053575929742,
        -0.0,
        1.2292091846466064,
        33.5084342956543,
        5.8695244789123535,
        1.0
      ],
      "name": "NurbsPath.007"
    },
    {
      "mesh": 11,
      "name": "NurbsPath.007_Hoja_0"
    }
  ],
  "samplers": [
    {
      "magFilter": 9729,
      "minFilter": 9987,
      "wrapS": 10497,
      "wrapT": 10497
    }
  ],
  "scene": 0,
  "scenes": [
    {
      "name": "Sketchfab_Scene",
      "nodes": [
        0
      ]
    }
  ],
  "textures": [
    {
      "sampler": 0,
      "source": 0
    }
  ]
}
